<svg width="146" height="51" viewBox="0 0 146 51" fill="none" xmlns="http://www.w3.org/2000/svg">
<path d="M145.958 9.03492C145.958 9.03492 118.297 -10.9761 67.6837 9.03492C67.6837 9.03492 37.472 20.8102 0 7.27211V24.1408H145.958V9.03492Z" fill="#D4FCFD"/>
<path d="M0 31.4358V17.3263C0 17.3263 32.3717 -2.68473 78.0794 19.8765L72.9791 36.8706L0 31.4358Z" fill="#ACF1F1"/>
<path d="M0 50.8622V31.4364C0 31.4364 28.8391 15.153 81.8071 27.5136C134.775 39.8742 145.958 25.3536 145.958 25.3536V50.8622H0Z" fill="#85E1DC"/>
<path d="M60.0332 23.2764C60.0332 23.2764 109.078 2.08779 145.958 18.1761V33.8672H90.217L60.0332 23.2764Z" fill="#9AF7F2"/>
<path d="M0 41.832C0 41.832 30.0166 57.5301 87.8898 35.5611C87.8898 35.5611 114.367 25.7576 145.958 43.0165V50.862H0V41.832Z" fill="#5DBFBB"/>
</svg>
