<svg width="146" height="51" viewBox="0 0 146 51" fill="none" xmlns="http://www.w3.org/2000/svg">
<path d="M145.958 9.03492C145.958 9.03492 118.297 -10.9761 67.6837 9.03492C67.6837 9.03492 37.472 20.8102 0 7.27211V24.1408H145.958V9.03492Z" fill="#F4CAD5"/>
<path d="M0 31.4358V17.3263C0 17.3263 32.3717 -2.68473 78.0794 19.8765L72.9791 36.8706L0 31.4358Z" fill="#F2B0C3"/>
<path d="M0 50.8617V31.4359C0 31.4359 28.8391 15.1525 81.8071 27.5131C134.775 39.8737 145.958 25.3532 145.958 25.3532V50.8617H0Z" fill="#F08BA6"/>
<path d="M60.0332 23.2764C60.0332 23.2764 109.078 2.08779 145.958 18.1761V33.8672H90.217L60.0332 23.2764Z" fill="#EC9EB5"/>
<path d="M0 41.8315C0 41.8315 30.0166 57.5296 87.8898 35.5606C87.8898 35.5606 114.367 25.7571 145.958 43.016V50.8616H0V41.8315Z" fill="#BF6B82"/>
</svg>
