<svg width="50" height="55" viewBox="0 0 50 55" fill="none" xmlns="http://www.w3.org/2000/svg">
<path d="M38.949 30.3059C32.8878 30.3059 28.0052 35.1886 28.0052 41.2498C28.0052 47.311 32.9439 52.1937 38.949 52.1937C44.9541 52.1937 49.8929 47.311 49.8929 41.2498C49.8929 35.1886 45.0103 30.3059 38.949 30.3059ZM44.9541 40.1273L38.3878 46.6937C37.6021 47.4794 36.3674 47.4794 35.5817 46.6937L33.0001 44.112C32.2143 43.3263 32.2143 42.0916 33.0001 41.3059C33.7858 40.5202 35.0205 40.5202 35.8062 41.3059L36.9847 42.4845L42.148 37.3212C42.9337 36.5355 44.1684 36.5355 44.9541 37.3212C45.7398 38.1069 45.7398 39.3416 44.9541 40.1273Z" fill="white"/>
<path d="M25.199 41.25C25.199 33.6735 31.3724 27.5 38.949 27.5H41.25V2.30102C41.25 1.0102 40.2398 0 38.949 0H2.30102C1.06633 0 0 1.0102 0 2.30102V52.699C0 53.9898 1.0102 55 2.30102 55H38.949C31.3724 55 25.199 48.8265 25.199 41.25ZM15.2092 38.6122H10.2704C8.97959 38.6122 7.96939 37.602 7.96939 36.3112C7.96939 35.0204 8.97959 34.0102 10.2704 34.0102H15.2092C16.5 34.0102 17.5102 35.0204 17.5102 36.3112C17.5102 37.602 16.5 38.6122 15.2092 38.6122ZM20.0918 26.4898H10.2704C8.97959 26.4898 7.96939 25.4796 7.96939 24.1888C7.96939 22.898 8.97959 21.8878 10.2704 21.8878H20.0357C21.3265 21.8878 22.3367 22.898 22.3367 24.1888C22.3367 25.4796 21.3265 26.4898 20.0918 26.4898ZM10.2704 14.3673C8.97959 14.3673 7.96939 13.3571 7.96939 12.0663C7.96939 10.7755 8.97959 9.76531 10.2704 9.76531H24.6378C25.9286 9.76531 26.9388 10.7755 26.9388 12.0663C26.9388 13.3571 25.9286 14.3673 24.6378 14.3673H10.2704Z" fill="white"/>
</svg>
