<svg width="60" height="60" viewBox="0 0 60 60" fill="none" xmlns="http://www.w3.org/2000/svg">
<g clip-path="url(#clip0)">
<path d="M29.9929 2.53163e-06C24.0577 3.03214e-06 18.2558 1.76015 13.3211 5.05781C8.38633 8.35547 4.54038 13.0425 2.26964 18.5262C-0.00109082 24.0098 -0.594593 30.0436 0.564201 35.8646C1.72299 41.6856 4.58203 47.0321 8.7797 51.2281C12.9774 55.424 18.3251 58.2809 24.1465 59.4373C29.968 60.5937 36.0016 59.9977 41.4843 57.7247C46.967 55.4517 51.6525 51.6038 54.9481 46.6677C58.2438 41.7316 60.0015 35.929 59.9991 29.9938C59.9991 26.054 59.2229 22.1527 57.7147 18.5128C56.2066 14.873 53.9962 11.566 51.2097 8.78064C48.4232 5.99529 45.1153 3.78622 41.4748 2.27961C37.8344 0.773003 33.9328 -0.00161616 29.9929 2.53163e-06ZM32.174 44.7566V49.6858H27.4297V45.0893C24.5737 45.0252 21.767 44.3309 19.2104 43.0561L20.6645 37.3999C23.1229 38.7584 25.8781 39.4906 28.6867 39.5317C31.447 39.5317 33.3817 38.4104 33.3817 36.525C33.3817 34.6396 31.792 33.5305 28.2061 32.3229C23.0305 30.573 19.5061 28.1577 19.5061 23.475C19.5061 19.162 22.5006 15.8226 27.6762 14.849V10.2649H32.4082V14.5163C34.8365 14.5471 37.2307 15.0931 39.4322 16.1183L37.9781 21.5897C35.8303 20.4647 33.4403 19.881 31.0157 19.8891C27.861 19.8891 26.8506 21.2939 26.8506 22.6494C26.8506 24.1898 28.5511 25.2619 32.6546 26.7529C38.4587 28.7862 40.7384 31.4479 40.7384 35.8472C40.7384 40.2465 37.781 43.7831 32.174 44.7566Z" fill="white"/>
</g>
<defs>
<clipPath id="clip0">
<rect width="60" height="60" fill="white"/>
</clipPath>
</defs>
</svg>
