<svg width="83" height="52" viewBox="0 0 83 52" fill="none" xmlns="http://www.w3.org/2000/svg">
<path fill-rule="evenodd" clip-rule="evenodd" d="M7.70208 0L75.3021 0C79.5366 0 83 3.34219 83 7.42839L83 44.5716C83 48.6578 79.5366 52 75.3021 52L7.70208 52C3.37277 52 0.132477 48.7493 0.092392 44.6296C-0.0292053 32.2279 0.00419617 19.8327 0.00419617 7.42839C0.00419617 3.34219 3.46764 0 7.70208 0ZM9.05833 31.5162L33.7154 31.5162V35.8074L9.05833 35.8074V31.5162ZM9.05833 38.7344L46.6445 38.7344V43.0269L9.05833 43.0269V38.7344ZM61.0528 18.3395H71.7144C73.4087 18.3395 74.7944 19.6754 74.7944 21.3104V27.439C74.7944 29.074 73.4087 30.4098 71.7144 30.4098H61.0528C59.3598 30.4098 57.9742 29.0727 57.9742 27.439V21.3104C57.9742 19.6767 59.3598 18.3395 61.0528 18.3395Z" fill="white"/>
</svg>
