<svg width="54" height="53" viewBox="0 0 54 53" fill="none" xmlns="http://www.w3.org/2000/svg">
<path d="M50.76 12.72H49.68V7.42C49.68 5.671 48.3759 3.59976 46.7824 2.81801C46.7824 2.81801 41.04 0 27 0C12.96 0 7.21818 2.81801 7.21818 2.81801C5.6241 3.59976 4.32 5.671 4.32 7.42V12.72H3.24C1.458 12.72 0 14.151 0 15.9V19.08C0 20.829 1.458 22.26 3.24 22.26H4.32V43.99C4.32 45.3675 5.22558 46.5435 6.48 46.9829V48.76C6.48 51.092 8.424 53 10.8 53C13.176 53 15.12 51.092 15.12 48.76V47.17H38.88V48.76C38.88 51.092 40.824 53 43.2 53C45.576 53 47.52 51.092 47.52 48.76V46.9829C48.7744 46.5435 49.68 45.3669 49.68 43.99V22.26H50.76C52.542 22.26 54 20.829 54 19.08V15.9C54 14.151 52.542 12.72 50.76 12.72ZM16.2 5.3C16.2 4.717 16.686 4.24 17.28 4.24H36.72C37.314 4.24 37.8 4.717 37.8 5.3V7.42C37.8 8.003 37.314 8.48 36.72 8.48H17.28C16.686 8.48 16.2 8.003 16.2 7.42V5.3ZM11.34 42.93C9.84852 42.93 8.64 41.7428 8.64 40.28C8.64 38.8172 9.84852 37.63 11.34 37.63C12.8309 37.63 14.04 38.8172 14.04 40.28C14.04 41.7428 12.8309 42.93 11.34 42.93ZM42.66 42.93C41.1685 42.93 39.96 41.7428 39.96 40.28C39.96 38.8172 41.1685 37.63 42.66 37.63C44.1515 37.63 45.36 38.8172 45.36 40.28C45.36 41.7428 44.1515 42.93 42.66 42.93ZM45.36 30.74C45.36 31.323 44.874 31.8 44.28 31.8H9.72C9.126 31.8 8.64 31.323 8.64 30.74V13.78C8.64 13.197 9.126 12.72 9.72 12.72H44.28C44.874 12.72 45.36 13.197 45.36 13.78V30.74Z" fill="white"/>
</svg>
