<svg width="59" height="61" viewBox="0 0 59 61" fill="none" xmlns="http://www.w3.org/2000/svg">
<path d="M41.7968 53.2184H6.20593C5.02553 53.2184 4.06738 54.1752 4.06738 55.3569C4.06738 56.5373 5.02553 57.4941 6.20593 57.4941H9.79998C10.2282 58.8006 12.4345 60.2168 14.9553 60.2168C16.3498 60.2168 31.653 60.2168 33.0475 60.2168C35.5669 60.2168 37.7745 58.8006 38.2028 57.4941H41.7955C42.9772 57.4941 43.9367 56.5373 43.9367 55.3569C43.9381 54.1752 42.9786 53.2184 41.7968 53.2184Z" fill="white"/>
<path d="M57.6919 29.8612C56.8124 26.7903 54.8541 23.5093 52.004 23.5093H48.0034H38.3542H0C0 23.5093 1.29244e-06 51.0407 14.8234 51.0407H33.1772C36.9217 51.0407 39.7176 49.2816 41.8087 46.6565C42.5622 46.7351 43.3374 46.7839 44.1383 46.7839C47.0534 46.7839 50.2192 46.1835 53.1234 44.3662C58.5877 40.9524 58.9997 34.4202 57.6919 29.8612ZM50.8805 40.7735C48.8097 42.0691 46.4883 42.5136 44.2847 42.5339C46.5384 37.6253 47.4274 31.6718 47.7771 27.7457H51.8509C52.4824 28.1536 53.8837 30.4643 54.0707 33.6545C54.1778 35.5003 53.9081 38.8829 50.8805 40.7735Z" fill="white"/>
<path d="M10.1645 12.8319C12.242 14.1031 13.7409 15.0233 13.7409 19.3925C13.7409 19.9766 14.2153 20.451 14.7994 20.451C15.3848 20.451 15.8578 19.9766 15.8578 19.3925C15.8578 13.8375 13.5268 12.4077 11.2704 11.0254C10.0872 10.3017 8.97189 9.61729 8.09235 8.26749C5.78034 4.7168 9.06269 2.19609 9.44351 1.92098C9.91648 1.58082 10.0276 0.922178 9.69016 0.445139C9.35135 -0.0319002 8.69 -0.143029 8.21432 0.197132C6.34546 1.52525 3.54286 5.16132 6.31836 9.4235C7.45811 11.1731 8.896 12.054 10.1645 12.8319Z" fill="white"/>
<path d="M21.1283 12.8319C23.2045 14.1031 24.7047 15.0233 24.7047 19.3925C24.7047 19.9766 25.1804 20.451 25.7645 20.451C26.3486 20.451 26.8229 19.9766 26.8229 19.3925C26.8229 13.8375 24.4906 12.4077 22.2355 11.0254C21.0537 10.3017 19.937 9.61729 19.0588 8.26749C16.7455 4.7168 20.0278 2.19609 20.4086 1.92098C20.883 1.58082 20.9941 0.922178 20.6566 0.445139C20.3178 -0.0319002 19.6565 -0.143029 19.1794 0.197132C17.3106 1.52525 14.5093 5.16132 17.2848 9.4235C18.4219 11.1731 19.8598 12.054 21.1283 12.8319Z" fill="white"/>
<path d="M32.0905 12.8319C34.1667 14.1031 35.6669 15.0233 35.6669 19.3925C35.6669 19.9766 36.1426 20.451 36.7253 20.451C37.3108 20.451 37.7851 19.9766 37.7851 19.3925C37.7851 13.8375 35.4514 12.4077 33.1977 11.0254C32.0146 10.3017 30.8979 9.61729 30.0197 8.26749C27.7063 4.7168 30.9887 2.19609 31.3709 1.92098C31.8438 1.58082 31.955 0.922178 31.6162 0.445139C31.2773 -0.0319002 30.616 -0.143029 30.139 0.197132C28.2701 1.52525 25.4702 5.16132 28.2457 9.4235C29.3841 11.1731 30.8233 12.054 32.0905 12.8319Z" fill="white"/>
</svg>
