<svg width="70" height="50" viewBox="0 0 70 50" fill="none" xmlns="http://www.w3.org/2000/svg">
<path fill-rule="evenodd" clip-rule="evenodd" d="M11.9503 18.1033C13.376 15.1209 14.7127 11.9632 16.4058 8.54224C17.2969 6.96336 18.4553 5.47219 20.3266 5.29676H49.6436C51.604 5.47219 52.6733 6.96336 53.6535 8.54224C55.3466 11.9632 56.6833 15.1209 58.109 18.1033H11.9503ZM20.3266 0.647827C17.2078 0.647827 15.2473 1.78813 12.6632 5.38448L8.2968 15.0332H1.61359C0.63339 15.0332 -1.23791 20.3839 5.71263 20.5593L3.39578 26.1731C3.39578 33.1904 3.48489 40.2953 3.48489 47.3126C3.48489 48.8038 4.64332 49.9441 6.15818 49.9441H15.1582C16.6731 49.9441 17.8315 48.8038 17.8315 47.3126V41.4356H52.1387V47.3126C52.1387 48.8038 53.3862 49.9441 54.812 49.9441H63.9011C65.416 49.9441 66.5744 48.8038 66.5744 47.3126C66.5744 40.2953 66.6635 33.1904 66.6635 26.1731L64.2576 20.5593C71.2972 20.3839 69.3368 15.0332 68.3566 15.0332H61.6734L57.3961 5.38448C54.7228 1.78813 52.8515 0.647827 49.6436 0.647827H20.3266ZM56.7724 26.6117C54.3664 26.6117 52.406 28.5414 52.406 30.9098C52.406 33.2781 54.3664 35.2078 56.7724 35.2078C59.1783 35.2078 61.1387 33.2781 61.1387 30.9098C61.1387 28.5414 59.1783 26.6117 56.7724 26.6117ZM13.1978 26.6117C15.6038 26.6117 17.5642 28.5414 17.5642 30.9098C17.5642 33.2781 15.6038 35.2078 13.1978 35.2078C10.7919 35.2078 8.83146 33.2781 8.83146 30.9098C8.83146 28.5414 10.7919 26.6117 13.1978 26.6117Z" fill="white"/>
</svg>
