<svg width="54" height="60" viewBox="0 0 54 60" fill="none" xmlns="http://www.w3.org/2000/svg">
<path d="M52.6415 24.7356L47.0435 19.0852L42.187 14.1833L31.382 3.27732C31.3312 3.21734 31.2786 3.1591 31.2218 3.1026L29.0773 0.93808C28.5038 0.359137 27.7519 0.0705349 27.0001 0.0722734C26.2482 0.0705349 25.4963 0.359137 24.9228 0.93808L22.7774 3.1026C22.7215 3.1591 22.6681 3.21734 22.6173 3.27732L11.8123 14.1833L6.95578 19.0852L1.35779 24.7356C0.214072 25.89 0.214072 27.7616 1.35779 28.9168L3.50225 31.0822C4.43754 32.0263 5.84738 32.1975 6.95578 31.5986V54.6459H4.24205V59.0723H49.7572V54.6459H47.0443V31.5977C48.1527 32.1966 49.5626 32.0254 50.4979 31.0813L52.6423 28.916C53.786 27.7616 53.786 25.89 52.6415 24.7356ZM22.3606 15.3247H25.3172V12.616C25.3172 11.6781 26.0699 10.9175 27.0001 10.9175C27.9293 10.9175 28.682 11.6781 28.682 12.616V15.3247H31.6395C32.4181 15.3247 33.0493 15.961 33.0493 16.7477C33.0493 17.5344 32.4189 18.1708 31.6395 18.1708H28.682V25.0111C28.682 25.9491 27.9293 26.7097 27.0001 26.7097C26.0699 26.7097 25.3172 25.9491 25.3172 25.0111V18.1708H22.3606C21.5821 18.1708 20.9508 17.5344 20.9508 16.7477C20.9508 15.961 21.5821 15.3247 22.3606 15.3247ZM21.6759 54.645V40.2097H32.3233V54.6441L21.6759 54.645Z" fill="white"/>
</svg>
