<svg width="43" height="43" viewBox="0 0 43 43" fill="none" xmlns="http://www.w3.org/2000/svg">
<g clip-path="url(#clip0)">
<path d="M21.4934 1.81434e-06C17.2399 2.17303e-06 13.0819 1.26144 9.54531 3.62476C6.00873 5.98809 3.25246 9.34714 1.6251 13.2771C-0.00225423 17.207 -0.427597 21.5313 0.402871 25.703C1.23334 29.8747 3.28231 33.7064 6.29064 36.7135C9.29897 39.7206 13.1315 41.768 17.3036 42.5967C21.4756 43.4255 25.7997 42.9983 29.7289 41.3694C33.6582 39.7404 37.0161 36.9827 39.378 33.4452C41.7399 29.9077 42.9996 25.7491 42.9979 21.4956C42.9979 18.672 42.4416 15.8761 41.3608 13.2675C40.28 10.659 38.6958 8.28895 36.6988 6.29279C34.7018 4.29662 32.3311 2.71346 29.7222 1.63372C27.1132 0.553985 24.317 -0.00115824 21.4934 1.81434e-06ZM23.0566 32.0756V35.6081H19.6565V32.314C17.6096 32.268 15.5982 31.7705 13.766 30.8569L14.8081 26.8032C16.57 27.7769 18.5445 28.3016 20.5573 28.3311C22.5355 28.3311 23.9221 27.5274 23.9221 26.1762C23.9221 24.825 22.7828 24.0302 20.2129 23.1647C16.5037 21.9107 13.9779 20.1797 13.9779 16.8238C13.9779 13.7328 16.124 11.3395 19.8331 10.6418V7.35654H23.2244V10.4034C24.9647 10.4254 26.6805 10.8167 28.2583 11.5514L27.2162 15.4726C25.6769 14.6664 23.9641 14.248 22.2264 14.2539C19.9656 14.2539 19.2414 15.2606 19.2414 16.2321C19.2414 17.336 20.4602 18.1043 23.401 19.1729C27.5606 20.6301 29.1944 22.5377 29.1944 25.6905C29.1944 28.8433 27.0749 31.3779 23.0566 32.0756Z" fill="white"/>
</g>
<defs>
<clipPath id="clip0">
<rect width="43" height="43" fill="white"/>
</clipPath>
</defs>
</svg>
