<svg width="56" height="56" viewBox="0 0 56 56" fill="none" xmlns="http://www.w3.org/2000/svg">
<g clip-path="url(#clip0)">
<path d="M27.9926 2.36286e-06C22.4531 2.82999e-06 17.038 1.6428 12.4322 4.72062C7.82645 7.79844 4.23689 12.173 2.11754 17.2911C-0.00181156 22.4091 -0.555747 28.0407 0.525794 33.4736C1.60733 38.9065 4.27577 43.8967 8.19359 47.8129C12.1114 51.7291 17.1026 54.3955 22.536 55.4748C27.9693 56.5541 33.6007 55.9978 38.7179 53.8764C43.8351 51.7549 48.2082 48.1636 51.2841 43.5565C54.36 38.9495 56.0006 33.5338 55.9983 27.9943C55.9983 24.317 55.2739 20.6758 53.8663 17.2787C52.4587 13.8815 50.3957 10.7949 47.7949 8.19526C45.1942 5.5956 42.1068 3.5338 38.709 2.12764C35.3113 0.721469 31.6698 -0.00150841 27.9926 2.36286e-06ZM30.0283 41.7729V46.3734H25.6003V42.0834C22.9346 42.0235 20.3151 41.3755 17.9289 40.1857L19.2861 34.9066C21.5806 36.1745 24.1521 36.8579 26.7734 36.8963C29.3497 36.8963 31.1554 35.8497 31.1554 34.09C31.1554 32.3303 29.6718 31.2951 26.3249 30.168C21.4943 28.5348 18.2049 26.2806 18.2049 21.91C18.2049 17.8846 20.9998 14.7677 25.8303 13.8591V9.58061H30.2468V13.5486C32.5133 13.5773 34.7478 14.0869 36.8026 15.0437L35.4454 20.1503C33.4408 19.1004 31.2102 18.5556 28.9472 18.5632C26.0028 18.5632 25.0597 19.8743 25.0597 21.1395C25.0597 22.5771 26.6469 23.5777 30.4769 24.9694C35.894 26.8671 38.0217 29.3514 38.0217 33.4574C38.0217 37.5634 35.2614 40.8642 30.0283 41.7729Z" fill="white"/>
</g>
<defs>
<clipPath id="clip0">
<rect width="56" height="56" fill="white"/>
</clipPath>
</defs>
</svg>
