<svg width="46" height="57" viewBox="0 0 46 57" fill="none" xmlns="http://www.w3.org/2000/svg">
<path d="M3.38138 0C1.88248 0 0.675781 1.16186 0.675781 2.60506V53.4038C0.675781 54.847 1.88248 56.0088 3.38138 56.0088H42.6126C44.1115 56.0088 45.3182 54.847 45.3182 53.4038V2.60506C45.3182 1.16186 44.1115 0 42.6126 0H3.38138ZM14.2038 9.76899C15.698 9.76899 16.9094 10.9353 16.9094 12.374C16.9094 13.8128 15.698 14.9791 14.2038 14.9791C12.7096 14.9791 11.4982 13.8128 11.4982 12.374C11.4982 10.9353 12.7096 9.76899 14.2038 9.76899ZM24.3498 14.9791H37.2014C37.9486 14.9791 38.5542 15.5623 38.5542 16.2816C38.5542 17.001 37.9486 17.5842 37.2014 17.5842H24.3498C23.6027 17.5842 22.997 17.001 22.997 16.2816C22.997 15.5623 23.6027 14.9791 24.3498 14.9791ZM14.2038 15.6304C16.7013 15.6304 19.615 16.5421 19.615 20.1892H8.79259C8.79259 16.5421 11.7063 15.6304 14.2038 15.6304ZM8.79259 24.0968H37.2014C37.9486 24.0968 38.5542 24.68 38.5542 25.3994C38.5542 26.1187 37.9486 26.7019 37.2014 26.7019H8.79259C8.04544 26.7019 7.43979 26.1187 7.43979 25.3994C7.43979 24.68 8.04544 24.0968 8.79259 24.0968ZM8.79259 33.2145H37.2014C37.9486 33.2145 38.5542 33.7977 38.5542 34.5171C38.5542 35.2365 37.9486 35.8196 37.2014 35.8196H8.79259C8.04544 35.8196 7.43979 35.2365 7.43979 34.5171C7.43979 33.7977 8.04544 33.2145 8.79259 33.2145ZM8.79259 42.3323H37.2014C37.9486 42.3323 38.5542 42.9154 38.5542 43.6348C38.5542 44.3542 37.9486 44.9373 37.2014 44.9373H8.79259C8.04544 44.9373 7.43979 44.3542 7.43979 43.6348C7.43979 42.9154 8.04544 42.3323 8.79259 42.3323Z" fill="white"/>
</svg>
