<svg width="42" height="51" viewBox="0 0 42 51" fill="none" xmlns="http://www.w3.org/2000/svg">
<path d="M41.3748 19.8611L33.811 3.0726C33.666 2.75171 33.315 2.54089 32.925 2.54089H11.9435C11.4161 2.54089 10.9897 2.9202 10.9897 3.38756V20.3209C10.9897 20.7882 11.4161 21.1675 11.9435 21.1675H40.5546C40.5604 21.1675 40.568 21.1675 40.5737 21.1675C41.1011 21.1675 41.5274 20.7882 41.5274 20.3209C41.5274 20.1515 41.4711 19.9932 41.3748 19.8611Z" fill="white"/>
<path d="M9.08235 43.2381V0.84666C9.08235 0.379304 8.65604 0 8.12865 0C7.60125 0 7.17494 0.379304 7.17494 0.84666V43.2381C3.41831 43.6572 0.499023 46.5054 0.499023 49.953C0.499023 50.4203 0.925329 50.7996 1.45273 50.7996H14.8046C14.8112 50.7996 14.8179 50.7996 14.8236 50.7996C15.351 50.7996 15.7773 50.4203 15.7773 49.953C15.7773 49.8912 15.7697 49.8302 15.7564 49.7726C15.6562 46.4063 12.7741 43.6504 9.08235 43.2381Z" fill="white"/>
</svg>
