<svg width="84" height="50" viewBox="0 0 84 50" fill="none" xmlns="http://www.w3.org/2000/svg">
<path d="M9.22514 44.2459L0.692477 34.2125C-0.441612 32.8805 -0.151589 30.8527 1.33453 29.8833L10.3352 24.0027C11.3433 23.345 12.6554 23.345 13.6635 24.0027L21.1381 28.8856L27.6216 25.3346L12.8784 10.8868C11.5183 9.55678 11.7743 7.3182 13.4085 6.31359L20.672 1.86388C24.5133 -0.489373 29.3677 -0.624628 33.338 1.51692L52.3735 11.7777L64.7645 4.98848C70.876 1.66001 78.7026 3.76529 82.2238 9.67733L82.2388 9.70184C86.1131 16.2176 83.3549 24.6064 76.3204 27.6683L28.4536 48.6172C21.7971 51.5301 13.8925 49.7326 9.22514 44.2459Z" fill="white"/>
</svg>
