<svg width="53" height="43" viewBox="0 0 53 43" fill="none" xmlns="http://www.w3.org/2000/svg">
<path d="M14.22 11.3523C14.22 11.8329 14.0775 12.3027 13.8105 12.7023C13.5435 13.1019 13.1639 13.4134 12.7199 13.5973C12.2759 13.7812 11.7873 13.8293 11.3159 13.7356C10.8446 13.6418 10.4116 13.4104 10.0717 13.0705C9.73189 12.7307 9.50045 12.2977 9.40669 11.8263C9.31293 11.355 9.36105 10.8664 9.54497 10.4223C9.72889 9.97832 10.0404 9.59881 10.44 9.33179C10.8396 9.06478 11.3094 8.92227 11.79 8.92227C12.4345 8.92227 13.0526 9.17828 13.5083 9.634C13.964 10.0897 14.22 10.7078 14.22 11.3523ZM52.8 6.07227V25.9523L38.8 12.9523C38.6135 12.772 38.3643 12.6713 38.105 12.6713C37.8457 12.6713 37.5965 12.772 37.41 12.9523L26.54 23.7623L19.23 18.5423C19.0626 18.4261 18.8637 18.3639 18.66 18.3639C18.4563 18.3639 18.2574 18.4261 18.09 18.5423L0.5 30.5423V6.07227C0.5 4.48097 1.13214 2.95484 2.25736 1.82963C3.38258 0.704407 4.9087 0.0722656 6.5 0.0722656H46.8C48.3913 0.0722656 49.9174 0.704407 51.0426 1.82963C52.1679 2.95484 52.8 4.48097 52.8 6.07227ZM16.22 11.3523C16.22 10.4761 15.9602 9.6196 15.4734 8.89109C14.9866 8.16258 14.2948 7.59478 13.4853 7.25948C12.6758 6.92418 11.7851 6.83645 10.9257 7.00739C10.0664 7.17832 9.27706 7.60024 8.65752 8.21978C8.03797 8.83933 7.61605 9.62868 7.44512 10.488C7.27419 11.3474 7.36192 12.2381 7.69721 13.0476C8.03251 13.857 8.60031 14.5489 9.32882 15.0357C10.0573 15.5225 10.9138 15.7823 11.79 15.7823C12.9641 15.7796 14.0894 15.312 14.9196 14.4818C15.7498 13.6516 16.2174 12.5264 16.22 11.3523ZM27.36 25.7823C27.1917 25.9491 26.9696 26.0507 26.7334 26.069C26.4971 26.0873 26.262 26.0211 26.07 25.8823L18.65 20.5723L0.5 32.9023V36.0723C0.5 37.6636 1.13214 39.1897 2.25736 40.3149C3.38258 41.4401 4.9087 42.0723 6.5 42.0723H46.8C48.3913 42.0723 49.9174 41.4401 51.0426 40.3149C52.1679 39.1897 52.8 37.6636 52.8 36.0723V28.6823L38.11 15.0723L27.36 25.7823Z" fill="white"/>
</svg>
