<svg width="59" height="54" viewBox="0 0 59 54" fill="none" xmlns="http://www.w3.org/2000/svg">
<path d="M4.12805 53.4H54.165C56.4466 53.4 58.3061 51.5536 58.3061 49.2588V16.169C58.3061 13.8874 56.4598 12.0279 54.165 12.0279H45.3287V11.9751H40.3567V12.0279H17.9495V11.9751H12.9775V12.0279H4.14124C1.85964 12.0279 6.97207e-05 13.8742 6.97207e-05 16.169V49.2588C-0.0131187 51.5536 1.84645 53.4 4.12805 53.4ZM29.1465 46.2255C21.7742 46.2255 15.7998 40.2511 15.7998 32.8788C15.7998 25.5064 21.7742 19.5189 29.1465 19.5189C36.5188 19.5189 42.4932 25.4932 42.4932 32.8656C42.4932 40.2379 36.5188 46.2255 29.1465 46.2255Z" fill="white"/>
<path d="M17.9496 8.4406V8.37466C17.9496 6.5019 19.4794 4.97204 21.3522 4.97204H36.9673C38.8401 4.97204 40.3699 6.5019 40.3699 8.37466V8.42741H45.342V8.37466C45.342 3.7587 41.5833 0 36.9673 0H21.339C16.7231 0 12.9644 3.7587 12.9644 8.37466V8.42741H17.9496V8.4406Z" fill="white"/>
<path d="M32.0611 25.3218H26.2318V30.0828H21.484V35.9121H26.2318V40.6599H32.0611V35.9121H36.809V30.0828H32.0611V25.3218Z" fill="white"/>
</svg>
