<svg width="54" height="46" viewBox="0 0 54 46" fill="none" xmlns="http://www.w3.org/2000/svg">
<path d="M37.6832 0H15.6768C15.1616 0 14.7568 0.4048 14.7568 0.92V13.2664V14.352V45.08V46H15.6768H21.16H22.08V45.08V44.16V33.12H25.76H26.22V44.16V45.08V45.8896V46H27.14V45.8896V45.08V44.16V33.12H27.6H31.28V44.16V45.08V46H32.2H37.6832H38.6032V45.08V14.352V13.2664V0.92C38.6032 0.4048 38.1984 0 37.6832 0ZM20.24 12.88V9.2H24.84V4.6H28.52V9.2H33.12V12.88H28.52V17.48H24.84V12.88H20.24Z" fill="white"/>
<path d="M0 23V45.08C0 45.5952 0.4048 46 0.92 46H13.8368V45.08V44.16V16.008V14.9224V13.8368L0.4232 22.2272C0.1656 22.3928 0 22.6872 0 23ZM10.1384 34.96V38.64H6.4584V34.96H10.1384ZM6.4584 29.44V25.76H10.1384V29.44H6.4584Z" fill="white"/>
<path d="M52.9368 22.2272L39.5232 13.8368V14.9224V16.008V44.16V45.08V46H52.44C52.9552 46 53.36 45.5952 53.36 45.08V23C53.36 22.6872 53.1944 22.3928 52.9368 22.2272ZM43.2216 29.44V25.76H46.9016V29.44H43.2216ZM46.9016 34.96V38.64H43.2216V34.96H46.9016Z" fill="white"/>
</svg>
