<svg width="56" height="70" viewBox="0 0 56 70" fill="none" xmlns="http://www.w3.org/2000/svg">
<g clip-path="url(#clip0)">
<path d="M29.75 54.25H7C5.06975 54.25 3.5 52.6802 3.5 50.75V5.25C3.5 3.31975 5.06975 1.75 7 1.75H26.25C28.1803 1.75 29.75 3.31975 29.75 5.25V54.25ZM7 5.25V50.75H26.25V5.25H7Z" fill="white"/>
<path d="M49 54.25H26.25V26.25H49C50.9303 26.25 52.5 27.8197 52.5 29.75V50.75C52.5 52.6803 50.9303 54.25 49 54.25ZM29.75 50.75H49.0017L49 29.75H29.75V50.75Z" fill="white"/>
<path d="M21 12.25H12.25C11.284 12.25 10.5 11.4678 10.5 10.5C10.5 9.53225 11.284 8.75 12.25 8.75H21C21.966 8.75 22.75 9.53225 22.75 10.5C22.75 11.4678 21.966 12.25 21 12.25Z" fill="white"/>
<path d="M21 19.25H12.25C11.284 19.25 10.5 18.4677 10.5 17.5C10.5 16.5322 11.284 15.75 12.25 15.75H21C21.966 15.75 22.75 16.5322 22.75 17.5C22.75 18.4677 21.966 19.25 21 19.25Z" fill="white"/>
<path d="M21 26.25H12.25C11.284 26.25 10.5 25.4677 10.5 24.5C10.5 23.5322 11.284 22.75 12.25 22.75H21C21.966 22.75 22.75 23.5322 22.75 24.5C22.75 25.4677 21.966 26.25 21 26.25Z" fill="white"/>
<path d="M43.75 36.75H35C34.034 36.75 33.25 35.9678 33.25 35C33.25 34.0323 34.034 33.25 35 33.25H43.75C44.716 33.25 45.5 34.0323 45.5 35C45.5 35.9678 44.716 36.75 43.75 36.75Z" fill="white"/>
<path d="M43.75 43.75H35C34.034 43.75 33.25 42.9678 33.25 42C33.25 41.0323 34.034 40.25 35 40.25H43.75C44.716 40.25 45.5 41.0323 45.5 42C45.5 42.9678 44.716 43.75 43.75 43.75Z" fill="white"/>
</g>
<defs>
<clipPath id="clip0">
<rect width="56" height="70" fill="white"/>
</clipPath>
</defs>
</svg>
