<svg width="95" height="45" viewBox="0 0 95 45" fill="none" xmlns="http://www.w3.org/2000/svg">
<path d="M17.0974 7.68168C19.0737 7.68168 20.6758 6.12145 20.6758 4.1968C20.6758 2.27215 19.0737 0.711914 17.0974 0.711914C15.1211 0.711914 13.5189 2.27215 13.5189 4.1968C13.5189 6.12145 15.1211 7.68168 17.0974 7.68168Z" fill="white"/>
<path d="M32.3059 7.68168C34.2822 7.68168 35.8844 6.12145 35.8844 4.1968C35.8844 2.27215 34.2822 0.711914 32.3059 0.711914C30.3296 0.711914 28.7274 2.27215 28.7274 4.1968C28.7274 6.12145 30.3296 7.68168 32.3059 7.68168Z" fill="white"/>
<path d="M47.614 7.68168C49.5903 7.68168 51.1925 6.12145 51.1925 4.1968C51.1925 2.27215 49.5903 0.711914 47.614 0.711914C45.6376 0.711914 44.0354 2.27215 44.0354 4.1968C44.0354 6.12145 45.6376 7.68168 47.614 7.68168Z" fill="white"/>
<path d="M62.9221 7.68168C64.8985 7.68168 66.5007 6.12145 66.5007 4.1968C66.5007 2.27215 64.8985 0.711914 62.9221 0.711914C60.9458 0.711914 59.3436 2.27215 59.3436 4.1968C59.3436 6.12145 60.9458 7.68168 62.9221 7.68168Z" fill="white"/>
<path d="M78.1306 7.68168C80.107 7.68168 81.7091 6.12145 81.7091 4.1968C81.7091 2.27215 80.107 0.711914 78.1306 0.711914C76.1543 0.711914 74.5521 2.27215 74.5521 4.1968C74.5521 6.12145 76.1543 7.68168 78.1306 7.68168Z" fill="white"/>
<path d="M6.95858 34.2056C8.35022 33.2375 9.94067 32.6567 11.6305 32.6567C13.8174 32.6567 15.8054 33.5279 17.2965 35.0768C18.1911 36.0448 19.384 36.5288 20.5768 36.5288C21.7696 36.5288 22.9625 36.0448 23.8571 35.0768C25.4475 33.5279 27.4356 32.6567 29.6225 32.6567C31.8093 32.6567 33.7974 33.5279 35.2884 35.0768C36.1831 36.0448 37.3759 36.5288 38.5687 36.5288C39.7616 36.5288 40.9544 36.0448 41.849 35.0768C43.4395 33.5279 45.4276 32.6567 47.6144 32.6567C49.8013 32.6567 51.7893 33.5279 53.2804 35.0768C54.175 36.0448 55.3679 36.5288 56.5607 36.5288C57.7535 36.5288 58.9464 36.0448 59.841 35.0768C61.4314 33.5279 63.4195 32.6567 65.6064 32.6567C67.7932 32.6567 69.7813 33.5279 71.2723 35.0768C72.167 36.0448 73.3598 36.5288 74.5526 36.5288C75.7455 36.5288 76.9383 36.0448 77.8329 35.0768C79.4234 33.5279 81.4114 32.6567 83.5983 32.6567C85.2882 32.6567 86.8786 33.2375 88.2703 34.2056L93.5386 21.9115C94.7315 19.201 92.644 16.2001 89.6619 16.2001H83.7971C82.1073 8.64941 80.6162 8.64941 79.4234 8.64941H76.6401C75.4473 8.64941 74.0556 8.64941 72.2664 16.2001H68.3897C66.6998 8.64941 65.2088 8.64941 64.0159 8.64941H61.5308C60.338 8.64941 58.9464 8.64941 57.1571 16.2001H53.3798C51.6899 8.64941 50.1989 8.64941 49.0061 8.64941H46.2228C45.0299 8.64941 43.6383 8.64941 41.849 16.2001H37.9723C36.2825 8.64941 34.7914 8.64941 33.5986 8.64941H30.8153C29.6225 8.64941 28.2308 8.64941 26.4416 16.2001H22.7637C21.0738 8.64941 19.5828 8.64941 18.3899 8.64941H15.6066C14.4138 8.64941 13.0222 8.64941 11.2329 16.2001H5.46753C2.48544 16.2001 0.397979 19.201 1.59082 21.9115L6.95858 34.2056Z" fill="white"/>
<path d="M92.5442 40.2073C90.2579 40.2073 88.1704 39.3361 86.4806 37.5937C85.6853 36.8192 84.5919 36.3352 83.5979 36.3352C82.5045 36.3352 81.5104 36.8192 80.7152 37.5937C79.0254 39.2393 76.9379 40.2073 74.6516 40.2073C72.3653 40.2073 70.2779 39.3361 68.588 37.5937C67.7928 36.8192 66.6994 36.3352 65.7053 36.3352C64.6119 36.3352 63.6179 36.8192 62.8227 37.5937C61.1328 39.2393 59.0454 40.2073 56.7591 40.2073C54.4728 40.2073 52.3854 39.3361 50.6955 37.5937C49.9003 36.8192 48.8068 36.3352 47.8128 36.3352C46.7194 36.3352 45.7254 36.8192 44.9301 37.5937C43.2403 39.2393 41.1528 40.2073 38.8666 40.2073C36.5803 40.2073 34.4928 39.3361 32.803 37.5937C32.0077 36.8192 30.9143 36.3352 29.9203 36.3352C28.8268 36.3352 27.8328 36.8192 27.0376 37.5937C25.3477 39.2393 23.2603 40.2073 20.974 40.2073C18.6877 40.2073 16.6003 39.2393 14.9104 37.5937C13.32 35.948 10.7355 35.948 9.04565 37.5937C7.3558 39.2393 5.26834 40.2073 2.98207 40.2073C1.68983 40.2073 0.695801 41.1754 0.695801 42.4338C0.695801 43.6923 1.68983 44.6603 2.98207 44.6603C6.36177 44.6603 9.54267 43.4019 11.9283 41.0786C14.4134 43.4019 17.5943 44.6603 20.974 44.6603C24.3537 44.6603 27.5346 43.4019 29.9203 41.0786C32.4054 43.4019 35.5863 44.6603 38.8666 44.6603C42.2463 44.6603 45.4271 43.4019 47.8128 41.0786C50.2979 43.4019 53.4788 44.6603 56.7591 44.6603C60.1388 44.6603 63.3197 43.4019 65.7053 41.0786C68.1904 43.4019 71.3713 44.6603 74.6516 44.6603C78.0313 44.6603 81.2122 43.4019 83.5979 41.0786C86.083 43.4019 89.2639 44.6603 92.5442 44.6603C93.8364 44.6603 94.8304 43.6923 94.8304 42.4338C94.8304 41.2722 93.8364 40.2073 92.5442 40.2073Z" fill="white"/>
</svg>
