<svg width="40" height="43" viewBox="0 0 40 43" fill="none" xmlns="http://www.w3.org/2000/svg">
<path d="M39.9557 7.87989C39.9215 7.51186 39.8051 7.15527 39.6143 6.83459C39.4235 6.51392 39.1629 6.23673 38.8504 6.02203C33.3856 2.13558 26.7757 0.0261403 19.9802 0C13.2074 0.0397221 6.62291 2.14848 1.17653 6.02203C0.863973 6.23673 0.603368 6.51392 0.412584 6.83459C0.2218 7.15527 0.10535 7.51186 0.0712194 7.87989C0.00463432 8.87929 -1.85975 32.3524 18.6485 42.6411L18.7816 42.718L19.1145 42.8461C19.192 42.866 19.2677 42.8917 19.3409 42.923C19.7784 43.0257 20.2352 43.0257 20.6726 42.923C20.7459 42.8917 20.8216 42.866 20.899 42.8461L21.232 42.718L21.3651 42.6411C41.8201 32.3524 39.9557 8.87929 39.9557 7.87989ZM27.2512 17.3358L20.1533 24.165C19.9059 24.4033 19.6122 24.5923 19.2888 24.7212C18.9655 24.8502 18.6189 24.9166 18.2689 24.9166C17.9189 24.9166 17.5723 24.8502 17.249 24.7212C16.9257 24.5923 16.6319 24.4033 16.3846 24.165L12.8422 20.744C12.4059 20.2538 12.1779 19.6232 12.2038 18.9782C12.2297 18.3333 12.5076 17.7215 12.9819 17.2651C13.4562 16.8088 14.0921 16.5414 14.7624 16.5165C15.4327 16.4916 16.0881 16.7109 16.5976 17.1308L18.2756 18.7324L23.4958 13.7097C24.0033 13.2689 24.6675 13.0327 25.351 13.05C26.0345 13.0674 26.6848 13.3369 27.1674 13.8029C27.65 14.2689 27.9279 14.8956 27.9435 15.5532C27.9591 16.2109 27.7112 16.8491 27.2512 17.3358Z" fill="white"/>
</svg>
