<svg width="65" height="60" viewBox="0 0 65 60" fill="none" xmlns="http://www.w3.org/2000/svg">
<path d="M58.8487 12.8837H46.3505V9.58131C46.3505 4.48417 42.4108 0.320312 37.5881 0.320312H27.3993C22.5766 0.320312 18.637 4.48417 18.637 9.58131V12.8837H6.07081C2.81041 12.8837 0.229248 15.6835 0.229248 19.0577V27.3136C0.229248 28.3905 1.04435 29.252 2.06323 29.252H28.7578V27.7443C28.7578 27.0264 29.3012 26.4521 29.9805 26.4521H35.0069C35.6862 26.4521 36.2296 27.0264 36.2296 27.7443V29.252H62.9242C63.9431 29.252 64.7582 28.3905 64.7582 27.3136V19.1295C64.7582 15.6835 62.1091 12.8837 58.8487 12.8837ZM25.1578 9.58131C25.1578 8.28908 26.1767 7.21222 27.3993 7.21222H37.5881C38.8108 7.21222 39.8296 8.28908 39.8296 9.58131V12.8837H25.1578V9.58131Z" fill="white"/>
<path d="M60.3431 32.8413H36.1617C35.9579 34.7797 34.3957 36.2155 32.4937 36.2155C30.5918 36.2155 29.0975 34.7079 28.8937 32.8413H4.64441C3.62553 32.8413 2.81042 33.7028 2.81042 34.7797V53.3735C2.81042 56.8194 5.45951 59.5475 8.65199 59.5475H56.2676C59.528 59.5475 62.1771 56.7476 62.1771 53.3017V34.7797C62.1771 33.7028 61.362 32.8413 60.3431 32.8413Z" fill="white"/>
</svg>
