<svg width="66" height="56" viewBox="0 0 66 56" fill="none" xmlns="http://www.w3.org/2000/svg">
<path d="M59.7894 11.8071H47.0417V8.70349C47.0417 3.9132 43.0234 0 38.1045 0H27.7123C22.7934 0 18.7751 3.9132 18.7751 8.70349V11.8071H5.95816C2.63267 11.8071 0 14.4384 0 17.6094V25.3683C0 26.3804 0.83137 27.19 1.87058 27.19H29.098V25.7731C29.098 25.0984 29.6522 24.5587 30.345 24.5587H35.4718C36.1646 24.5587 36.7189 25.0984 36.7189 25.7731V27.19H63.9463C64.9855 27.19 65.8168 26.3804 65.8168 25.3683V17.6769C65.8168 14.4384 63.1149 11.8071 59.7894 11.8071ZM25.4261 8.70349C25.4261 7.48905 26.4653 6.47702 27.7123 6.47702H38.1045C39.3515 6.47702 40.3908 7.48905 40.3908 8.70349V11.8071H25.4261V8.70349Z" fill="white"/>
<path d="M61.3136 30.5632H36.6496C36.4417 32.3849 34.8483 33.7343 32.9084 33.7343C30.9686 33.7343 29.4444 32.3174 29.2365 30.5632H4.50327C3.46406 30.5632 2.63269 31.3729 2.63269 32.3849V49.8594C2.63269 53.0979 5.33464 55.6617 8.59084 55.6617H57.1567C60.4822 55.6617 63.1842 53.0304 63.1842 49.7919V32.3849C63.1842 31.3729 62.3528 30.5632 61.3136 30.5632Z" fill="white"/>
</svg>
