<svg width="58" height="50" viewBox="0 0 58 50" fill="none" xmlns="http://www.w3.org/2000/svg">
<path d="M56.8416 16.0091L29.3428 0.191527C29.0652 0.032512 28.7251 0.032512 28.4474 0.191527L0.949279 16.0091C0.671004 16.1693 0.5 16.4665 0.5 16.7871V18.8839C0.5 19.3799 0.901953 19.7812 1.3973 19.7812H56.3936C56.889 19.7812 57.2909 19.3799 57.2909 18.8839V16.7871C57.2909 16.4665 57.1199 16.1693 56.8416 16.0091ZM28.8955 15.4519C26.4187 15.4519 24.4096 13.4434 24.4096 10.9667C24.4096 8.48805 26.4187 6.4808 28.8955 6.4808C31.3722 6.4808 33.3813 8.48868 33.3813 10.9667C33.3813 13.4434 31.3722 15.4519 28.8955 15.4519Z" fill="white"/>
<path d="M7.19111 22.3018V45.5684H4.54592C4.27395 45.5684 4.0531 45.7899 4.0531 46.0618V48.9935C4.0531 49.2667 4.27395 49.4876 4.54592 49.4876H53.2448C53.5167 49.4876 53.7376 49.2667 53.7376 48.9935V46.0618C53.7376 45.7899 53.5167 45.5684 53.2448 45.5684H50.5996V22.3018H7.19111ZM24.7023 45.5684H15.3299V31.9341C15.3299 29.3464 17.428 27.2482 20.0158 27.2482C22.6042 27.2482 24.7016 29.347 24.7016 31.9341V45.5684H24.7023ZM42.4608 45.5684H33.0884V31.9341C33.0884 29.3464 35.1859 27.2482 37.7743 27.2482C40.3627 27.2482 42.4602 29.347 42.4602 31.9341V45.5684H42.4608Z" fill="white"/>
</svg>
