<svg width="72" height="59" viewBox="0 0 72 59" fill="none" xmlns="http://www.w3.org/2000/svg">
<path d="M68.7692 52.7995H46.9231V35.8688C48.6284 36.5925 50.484 36.9814 52.3846 36.9814C59.9133 36.9814 66.0385 31.068 66.0385 23.7995C66.0385 18.4622 62.7178 13.7313 57.7506 11.6881C56.945 5.15518 51.1722 0.0722656 44.1923 0.0722656C37.2125 0.0722656 31.4396 5.15386 30.634 11.6881C25.6668 13.7313 22.3462 18.4622 22.3462 23.7995C22.3462 31.068 28.4713 36.9814 36 36.9814C37.9006 36.9814 39.7562 36.5925 41.4615 35.8701V52.7995H19.6154V44.8904H25.0769C26.5843 44.8904 27.8077 43.7094 27.8077 42.2541C27.8077 40.7988 26.5843 39.6177 25.0769 39.6177H8.69231C7.18492 39.6177 5.96154 40.7988 5.96154 42.2541C5.96154 43.7094 7.18492 44.8904 8.69231 44.8904H14.1538V52.7995H3.23077C1.72338 52.7995 0.5 53.9806 0.5 55.4359C0.5 56.8912 1.72338 58.0723 3.23077 58.0723H68.7692C70.2766 58.0723 71.5 56.8912 71.5 55.4359C71.5 53.9806 70.2766 52.7995 68.7692 52.7995Z" fill="white"/>
</svg>
