<svg width="75" height="58" viewBox="0 0 75 58" fill="none" xmlns="http://www.w3.org/2000/svg">
<path d="M38.1647 0L73.6468 15.9651C74.2704 16.2465 74.6696 16.8504 74.6696 17.5158C74.6696 18.1812 74.2704 18.7842 73.6468 19.0656L38.1647 35.0325C37.927 35.1394 37.6706 35.1933 37.4143 35.1933C37.1579 35.1933 36.9016 35.1394 36.6638 35.0325L1.18176 19.0656C0.557277 18.7834 0.158104 18.1795 0.158104 17.515C0.158104 16.8504 0.557277 16.2465 1.18176 15.9643L38.1647 0ZM38.1647 46.4354L73.6468 30.4703C74.5339 30.07 74.9188 29.053 74.5037 28.196C74.0894 27.3407 73.0383 26.9687 72.1459 27.3698L37.4143 42.9971L2.68265 27.3698C1.7956 26.9721 0.740009 27.3407 0.324869 28.196C-0.0893842 29.053 0.293822 30.07 1.18265 30.4703L36.6647 46.4354C36.9025 46.5423 37.1588 46.5962 37.4152 46.5962C37.6715 46.5962 37.927 46.5423 38.1647 46.4354ZM38.1647 57.8401L73.6468 41.8741C74.5339 41.4738 74.9188 40.4568 74.5037 39.5998C74.0894 38.7445 73.0383 38.3716 72.1459 38.7736L37.4143 54.4017L2.68265 38.7736C1.7956 38.3759 0.740009 38.7445 0.324869 39.5998C-0.0893842 40.4568 0.293822 41.4738 1.18265 41.8741L36.6647 57.8401C36.9016 57.947 37.1579 58 37.4143 58C37.6706 58 37.927 57.947 38.1647 57.8401Z" fill="white"/>
</svg>
