<svg width="64" height="54" viewBox="0 0 64 54" fill="none" xmlns="http://www.w3.org/2000/svg">
<path d="M55.3378 48.6153C55.7903 47.9458 55.8657 47.1424 55.7903 46.339C55.6395 45.5357 55.3378 44.7992 54.9608 44.1297C54.5083 43.1255 54.0558 42.1882 53.5279 41.184C53.3017 40.7823 53.0754 40.4475 52.6983 40.1798C52.6229 40.1128 52.4721 40.0459 52.3213 39.9789C51.5671 39.7111 50.4359 39.912 49.6818 39.912C48.5506 39.912 47.4948 39.912 46.3636 39.912C44.9307 39.912 43.4978 39.912 42.1404 39.912V36.6315L34.9761 45.134L42.1404 53.3017V50.1551C42.1404 50.1551 49.4555 50.1551 50.1343 50.1551C51.1147 50.1551 52.095 50.1551 53 49.9543C53.9804 49.7534 54.8099 49.2848 55.3378 48.6153Z" fill="white"/>
<path d="M44.5537 25.1829C46.7407 28.5303 48.9277 31.8778 51.1146 35.2252C53.3016 38.6396 55.8656 42.1879 56.9968 46.004C56.9968 46.0709 57.0722 46.1378 57.1476 46.1378C58.2788 45.3345 58.9576 43.9955 59.7117 42.8574C61.1445 40.8489 62.8036 38.4387 63.1807 36.0286C63.4823 34.2879 62.2003 32.815 61.3708 31.3422C60.3904 29.7354 59.4854 28.1286 58.5051 26.5888C57.2231 24.3795 55.941 22.2371 54.5836 20.0278C51.6425 21.5677 48.626 23.1075 45.6849 24.5803C45.3078 24.8481 44.9308 24.982 44.5537 25.1829Z" fill="white"/>
<path d="M3.07631 37.4346C3.90586 37.7024 4.81082 37.8363 5.64036 37.9032C6.84698 38.0371 8.05359 38.171 9.18478 38.2379C9.63726 38.2379 10.1652 38.2379 10.6176 38.104C10.7685 38.0371 10.8439 37.9702 10.9947 37.9032C11.598 37.4346 11.9751 36.4973 12.3521 35.8947C12.88 35.0244 13.4079 34.221 14.0112 33.3507C14.69 32.2795 15.4441 31.1414 16.1228 30.0702L19.2902 31.7439L14.6145 22.1033L3.07631 23.5092L6.09284 25.116C6.09284 25.116 2.39759 30.7397 2.09594 31.2083C1.64346 31.9448 1.11557 32.6812 0.889329 33.4846C0.663089 34.288 0.66309 35.2922 1.11557 36.0286C1.49264 36.6981 2.24677 37.1668 3.07631 37.4346Z" fill="white"/>
<path d="M16.1982 39.3767C11.7488 39.3767 7.07314 39.5106 2.77458 38.5063C2.69917 38.5063 2.62375 38.5063 2.54834 38.5063C2.77458 39.7784 3.75495 40.9834 4.43367 42.1216C5.7157 44.2639 7.22397 46.6741 9.33554 48.2139C10.9192 49.285 12.9554 49.0842 14.8407 49.1512C16.8769 49.2181 18.913 49.2851 20.9492 49.352C23.7395 49.4189 26.5298 49.5528 29.3201 49.6198C29.3201 46.6071 29.3201 43.5275 29.3201 40.5148C29.3201 40.1131 29.3201 39.7784 29.3201 39.3767C24.9461 39.3767 20.5721 39.3767 16.1982 39.3767Z" fill="white"/>
<path d="M34.1465 5.70151C33.9203 6.03626 33.6186 6.43795 33.5432 6.90659C33.5432 7.04049 33.5432 7.17439 33.5432 7.30829C33.694 8.04472 34.4482 8.78116 34.8252 9.31675C35.3531 10.1871 35.9564 10.9905 36.4843 11.8608C37.1631 12.932 37.9172 14.0032 38.5959 15.1413L35.3531 16.7481L47.2685 17.9531L51.6425 8.37947L48.5505 9.91929C48.5505 9.91929 44.9307 4.29559 44.5536 3.76C44.1011 3.02356 43.5732 2.28712 42.8945 1.68458C42.2158 1.08204 41.3108 0.613403 40.4058 0.613403C39.5009 0.613403 38.6713 0.948147 37.9926 1.41679C37.3139 1.88543 36.786 2.55492 36.1827 3.15746C35.5794 3.96084 34.8252 4.83118 34.1465 5.70151Z" fill="white"/>
<path d="M23.0607 20.5636C25.2477 17.2162 27.4347 13.8687 29.6217 10.5213C31.8841 7.10692 33.9956 3.42474 37.163 0.612901C37.2384 0.545953 37.2384 0.479004 37.2384 0.412055C35.881 -0.0565853 34.2219 0.144261 32.789 0.077312C30.0741 -0.0565853 26.9068 -0.123534 24.3427 0.813747C22.4574 1.48323 21.7033 3.15695 20.6475 4.56287C19.5917 6.10269 18.4605 7.64251 17.4047 9.11538C15.8964 11.1908 14.4636 13.2662 12.9553 15.4086C15.8964 16.9484 18.913 18.4212 21.8541 19.9611C22.3066 20.1619 22.6836 20.3628 23.0607 20.5636Z" fill="white"/>
</svg>
