<svg width="56" height="60" viewBox="0 0 56 60" fill="none" xmlns="http://www.w3.org/2000/svg">
<path fill-rule="evenodd" clip-rule="evenodd" d="M31.8761 20.5172L26.431 26.9962L6.89991 3.78956C0.507904 -3.74966 -2.92484 11.9178 3.23043 19.2214L12.345 29.9412C13.0552 30.8837 14.4756 31.0015 15.3042 30.1768L17.4349 28.5276L21.3411 33.1219L3.3488 54.4437C2.5202 55.3861 2.63857 56.6819 3.58554 57.3887L5.95295 59.3913C6.89991 60.216 8.20199 60.0981 9.03058 59.1557L26.0759 38.8941L42.5294 58.3311C46.1989 62.6898 52.2358 57.6243 48.5663 53.2657L31.2842 32.7685L37.5579 25.347L43.7131 26.9962L55.4318 13.2136C56.3788 11.9178 56.142 9.91518 54.7216 8.38378L44.7785 20.1638C44.1866 20.8706 43.1213 20.9884 42.2927 20.3994C41.5825 19.6926 41.4641 18.6324 42.1743 17.9256L52.1174 6.02777L48.448 2.96496L38.3865 14.745C37.7946 15.5696 36.7293 15.6874 35.9007 14.9806C35.1905 14.3916 35.0721 13.3314 35.7823 12.5068L45.6071 0.726751C43.8315 -0.333452 41.8192 -0.215652 40.7539 0.962352L29.1536 14.745L31.8761 20.5172Z" fill="white"/>
</svg>
