<svg width="78" height="62" viewBox="0 0 78 62" fill="none" xmlns="http://www.w3.org/2000/svg">
<path d="M65.9724 27.2741L78 20.8481L39 0L0 20.8481L12.8309 27.7137V38.818C12.8309 42.1985 15.9276 45.8511 20.8951 48.6141V57.0496L28.9065 62V51.7853C32.3245 52.6791 35.8453 53.1294 39.3805 53.1249C54.0715 53.1249 65.9829 45.4639 65.9829 38.818C66.0358 38.3261 65.9724 27.2741 65.9724 27.2741ZM39 35.3119L30.6504 30.843L41.1138 19.8015L39.1163 17.9595L22.3748 26.4159L14.9024 22.418L11.9642 20.8481L39 6.39467L66.0358 20.8481L63.0976 22.418L39 35.3119Z" fill="white"/>
</svg>
