<svg width="47" height="54" viewBox="0 0 47 54" fill="none" xmlns="http://www.w3.org/2000/svg">
<path d="M46.6624 13.7624C46.6057 12.3411 46.6057 10.9744 46.6057 9.66241C46.6057 8.62373 45.7543 7.80372 44.676 7.80372C36.3329 7.74906 29.9763 5.45304 24.6981 0.533004C23.9602 -0.177668 22.7116 -0.177668 21.9738 0.533004C16.6955 5.45304 10.3389 7.74906 2.0526 7.74906C0.974249 7.74906 0.122917 8.56906 0.122917 9.60774C0.122917 10.9197 0.122917 12.2864 0.0661614 13.7624C-0.217616 27.2652 -0.614903 45.688 22.7116 53.4507C22.9386 53.5054 23.1089 53.5601 23.3359 53.5601C23.5629 53.5601 23.79 53.5054 23.9602 53.4507C47.2867 45.688 46.8895 27.2652 46.6624 13.7624ZM23.3359 49.6787C3.35798 42.6813 3.64176 27.3745 3.92554 13.8718C3.92554 13.0518 3.98229 12.2864 3.98229 11.5211C11.7578 11.1384 18.0009 8.89707 23.3359 4.41437C28.6709 8.89707 34.914 11.1931 42.6895 11.4664C42.6895 12.2318 42.6895 12.9971 42.7463 13.8171C43.0301 27.3745 43.3139 42.6813 23.3359 49.6787Z" fill="white"/>
<path d="M30.0317 20.2678L20.667 29.2878L16.6374 25.4065C15.8995 24.6958 14.6509 24.6958 13.8563 25.4065C13.1185 26.1172 13.1185 27.3198 13.8563 28.0852L19.2481 33.2785C19.6454 33.6612 20.0995 33.8252 20.6103 33.8252C21.1211 33.8252 21.6319 33.6612 21.9724 33.2785L32.756 22.8918C33.4938 22.1811 33.4938 20.9785 32.756 20.2131C32.0181 19.5025 30.7695 19.5025 30.0317 20.2678Z" fill="white"/>
</svg>
