<svg width="83" height="55" viewBox="0 0 83 55" fill="none" xmlns="http://www.w3.org/2000/svg">
<path fill-rule="evenodd" clip-rule="evenodd" d="M29.4623 27.3281C42.3093 27.3281 52.7581 37.6406 53.272 50.3594H59.2673V16.6719H66.2903V9.28125L75.5401 0L76.5678 1.03125L67.6606 9.96875V16.6719H74.5123V50.3594H79.8224C81.0214 50.3594 82.0492 51.3906 82.0492 52.5938C82.0492 53.9688 81.0214 55 79.8224 55H2.2268C1.02776 55 0 53.9688 0 52.5938C0 51.3906 1.02776 50.3594 2.2268 50.3594H5.65266C6.16654 37.6406 16.6154 27.3281 29.4623 27.3281Z" fill="white"/>
<path d="M29.6336 26.6409C30.7689 26.6409 31.6891 25.7175 31.6891 24.5784C31.6891 23.4393 30.7689 22.5159 29.6336 22.5159C28.4984 22.5159 27.5781 23.4393 27.5781 24.5784C27.5781 25.7175 28.4984 26.6409 29.6336 26.6409Z" fill="white"/>
</svg>
