<svg width="44" height="52" viewBox="0 0 44 52" fill="none" xmlns="http://www.w3.org/2000/svg">
<path fill-rule="evenodd" clip-rule="evenodd" d="M0.32489 8.12069C0.32489 4.14274 3.57901 0.917969 7.57135 0.917969H36.3722C40.3743 0.917969 43.6187 4.13917 43.6187 8.12069V43.987C43.6187 47.965 40.3645 51.1897 36.3722 51.1897H7.57135C3.56927 51.1897 0.32489 47.9685 0.32489 43.987V8.12069ZM3.9327 8.09965H40.0108V29.6447H3.9327V8.09965ZM11.1483 47.5989C13.1409 47.5989 14.7561 45.9912 14.7561 44.0081C14.7561 42.0249 13.1409 40.4172 11.1483 40.4172C9.15581 40.4172 7.54052 42.0249 7.54052 44.0081C7.54052 45.9912 9.15581 47.5989 11.1483 47.5989ZM32.7952 47.5989C34.7877 47.5989 36.403 45.9912 36.403 44.0081C36.403 42.0249 34.7877 40.4172 32.7952 40.4172C30.8027 40.4172 29.1874 42.0249 29.1874 44.0081C29.1874 45.9912 30.8027 47.5989 32.7952 47.5989Z" fill="white"/>
</svg>
