<svg width="47" height="57" viewBox="0 0 47 57" fill="none" xmlns="http://www.w3.org/2000/svg">
<path d="M23.2746 13.9891C22.5493 14.1066 20.857 17.3373 20.6152 23.0351H25.9943C25.6922 17.3373 23.9998 14.1066 23.2746 13.9891Z" fill="white"/>
<path d="M17.4118 23.0353C17.5327 20.0396 18.0766 17.1025 18.9832 14.8704C15.5986 16.2801 13.1206 19.3934 12.5162 23.0353H17.4118Z" fill="white"/>
<path d="M29.1369 23.0353H33.9721C33.4281 19.3347 30.9501 16.2801 27.505 14.8704C28.472 17.1025 29.016 20.0396 29.1369 23.0353Z" fill="white"/>
<path d="M20.5546 26.0891C20.7963 31.7869 22.4886 35.0176 23.2743 35.1351C23.9996 35.0176 25.6919 31.7869 25.9337 26.0891H20.5546Z" fill="white"/>
<path d="M17.4119 26.0891H12.5768C13.1207 29.7898 15.5987 32.8443 19.0438 34.254C18.0767 32.0219 17.5328 29.0261 17.4119 26.0891Z" fill="white"/>
<path d="M29.137 26.0891C29.0161 29.0849 28.4721 32.0219 27.5656 34.254C30.9501 32.8443 33.4281 29.731 34.0325 26.0891H29.137Z" fill="white"/>
<path d="M37.2963 0.537109H9.25247C4.41732 0.537109 0.48877 4.35524 0.48877 9.05448V47.8232C0.48877 52.5224 4.41732 56.3406 9.25247 56.3406H37.2963C42.1314 56.3406 46.06 52.5224 46.06 47.8232V9.05448C45.9995 4.35524 42.071 0.537109 37.2963 0.537109ZM32.8238 45.9435H13.725C12.8788 45.9435 12.1536 45.2386 12.1536 44.4162C12.1536 43.5939 12.8788 42.889 13.725 42.889H32.8238C33.6699 42.889 34.3952 43.5939 34.3952 44.4162C34.3952 45.2973 33.6699 45.9435 32.8238 45.9435ZM23.2744 38.131C15.5382 38.131 9.25247 32.022 9.25247 24.5032C9.25247 16.9844 15.5382 10.9342 23.2744 10.9342C31.0106 10.9342 37.2963 17.0432 37.2963 24.562C37.2963 32.0807 31.0106 38.131 23.2744 38.131Z" fill="white"/>
</svg>
