<svg width="51" height="59" viewBox="0 0 51 59" fill="none" xmlns="http://www.w3.org/2000/svg">
<path d="M41.1622 0H9.22948C4.17685 0 0 3.76584 0 8.4577V50.2523C0 54.8825 4.10948 58.71 9.22948 58.71H41.2295C46.2822 58.71 50.459 54.9442 50.459 50.2523V8.4577C50.3916 3.76584 46.2822 0 41.1622 0ZM47.2927 50.1906C47.2927 53.2773 44.5306 55.8085 41.1622 55.8085H9.22948C5.86106 55.8085 3.09895 53.2773 3.09895 50.1906V8.4577C3.09895 5.37095 5.86106 2.83981 9.22948 2.83981H41.2295C44.598 2.83981 47.3601 5.37095 47.3601 8.4577V50.1906H47.2927Z" fill="white"/>
<path d="M25.2017 10.7419C16.5112 10.7419 9.50488 17.2241 9.50488 25.1262C9.50488 33.09 16.5786 39.5105 25.2017 39.5105C33.8923 39.5105 40.8986 33.0283 40.8986 25.1262C40.8986 17.1623 33.8923 10.7419 25.2017 10.7419ZM36.4523 19.9404H31.2649C30.928 17.8414 30.3891 15.8659 29.648 14.3225C32.6123 15.3103 35.0375 17.3476 36.4523 19.9404ZM37.867 25.1262C37.867 25.9288 37.7996 26.7313 37.5975 27.4721H31.6017C31.6691 26.6696 31.6691 25.867 31.6691 25.1262C31.6691 24.3236 31.6691 23.5211 31.6017 22.7803H37.5975C37.7996 23.5211 37.867 24.3236 37.867 25.1262ZM25.2017 36.7324C24.4607 36.7324 22.9786 34.5099 22.2375 30.312H28.1659C27.4249 34.5099 25.9428 36.7324 25.2017 36.7324ZM21.9007 27.4721C21.8333 26.7313 21.8333 25.9905 21.8333 25.1262C21.8333 24.2619 21.9007 23.5211 21.9007 22.7803H28.5028C28.5702 23.5211 28.5702 24.3236 28.5702 25.1262C28.5702 25.9905 28.5028 26.7313 28.5028 27.4721H21.9007ZM12.5365 25.1262C12.5365 24.3236 12.6038 23.5211 12.8059 22.7803H18.8017C18.7344 23.5828 18.7344 24.3854 18.7344 25.1262C18.7344 25.9288 18.7344 26.7313 18.8017 27.4721H12.8059C12.6712 26.7313 12.5365 25.9288 12.5365 25.1262ZM25.2017 13.52C25.9428 13.52 27.4249 15.7424 28.1659 19.9404H22.2375C22.9786 15.7424 24.4607 13.52 25.2017 13.52ZM20.7554 14.3225C20.0144 15.8659 19.4754 17.8414 19.1386 19.9404H13.9512C15.3659 17.3476 17.7912 15.3103 20.7554 14.3225ZM13.9512 30.312H19.1386C19.4754 32.4109 20.0144 34.3865 20.7554 35.9299C17.7912 34.9421 15.3659 32.9048 13.9512 30.312ZM29.648 35.9299C30.3891 34.3865 30.928 32.4109 31.2649 30.312H36.4523C35.0375 32.9048 32.6123 34.9421 29.648 35.9299Z" fill="white"/>
<path d="M36.1084 45.1285H14.281C13.4053 45.1285 12.7316 45.7458 12.7316 46.5484C12.7316 47.3509 13.4053 47.9683 14.281 47.9683H36.1084C36.9842 47.9683 37.6579 47.3509 37.6579 46.5484C37.6579 45.7458 36.9169 45.1285 36.1084 45.1285Z" fill="white"/>
</svg>
